<svg width="14" height="12" viewBox="0 0 14 12" fill="none" xmlns="http://www.w3.org/2000/svg">
<path d="M7 1.90195L6.65351 2.23542C6.74418 2.32961 6.86927 2.38283 7 2.38283C7.13074 2.38283 7.25583 2.32961 7.34649 2.23542L7 1.90195ZM3.79454 8.90372C3.58947 8.73496 3.28642 8.76439 3.11765 8.96944C2.94888 9.17448 2.9783 9.47757 3.18337 9.64632L3.79454 8.90372ZM0.80756 6.97418C0.934993 7.20718 1.22719 7.29277 1.4602 7.16531C1.69322 7.03784 1.77879 6.74566 1.65135 6.51266L0.80756 6.97418ZM1.06916 4.23355C1.06916 2.85447 1.84843 1.69799 2.91212 1.21177C3.94551 0.739408 5.33402 0.8645 6.65351 2.23542L7.34649 1.56847C5.78082 -0.0581845 3.96347 -0.326278 2.51229 0.337059C1.09142 0.986541 0.107407 2.49465 0.107407 4.23355H1.06916ZM4.75425 10.8779C5.08268 11.1368 5.43525 11.4129 5.79255 11.6216C6.14975 11.8303 6.55734 12 7 12V11.0382C6.8015 11.0382 6.56792 10.9609 6.27779 10.7913C5.98779 10.6218 5.68693 10.3885 5.34966 10.1226L4.75425 10.8779ZM9.24577 10.8779C10.1605 10.1568 11.3297 9.33055 12.2469 8.29775C13.1806 7.24642 13.8926 5.94259 13.8926 4.23355H12.9308C12.9308 5.64246 12.3543 6.72841 11.5278 7.65914C10.6848 8.60839 9.62214 9.35651 8.65038 10.1226L9.24577 10.8779ZM13.8926 4.23355C13.8926 2.49465 12.9086 0.986541 11.4877 0.337059C10.0365 -0.326278 8.21919 -0.0581845 6.65351 1.56847L7.34649 2.23542C8.66596 0.8645 10.0545 0.739408 11.0879 1.21177C12.1516 1.69799 12.9308 2.85447 12.9308 4.23355H13.8926ZM8.65038 10.1226C8.31306 10.3885 8.01222 10.6218 7.72222 10.7913C7.43209 10.9609 7.19851 11.0382 7 11.0382V12C7.44267 12 7.85026 11.8303 8.20746 11.6216C8.56478 11.4129 8.9173 11.1368 9.24577 10.8779L8.65038 10.1226ZM5.34966 10.1226C4.83934 9.72031 4.32073 9.33677 3.79454 8.90372L3.18337 9.64632C3.71572 10.0844 4.27805 10.5025 4.75425 10.8779L5.34966 10.1226ZM1.65135 6.51266C1.29152 5.85475 1.06916 5.10952 1.06916 4.23355H0.107407C0.107407 5.28347 0.376667 6.1863 0.80756 6.97418L1.65135 6.51266Z" fill="#1F1F1F"/>
</svg>
