<svg width="34" height="35" viewBox="0 0 34 35" fill="none" xmlns="http://www.w3.org/2000/svg">
<path d="M17.1111 6.1111V0.777771L1 10.2222V15.5555L5.73856 12.7778L17.1111 6.1111Z" fill="#6F1676"/>
<path d="M17.1111 0.777771V6.1111L28.4444 12.6667L33 10.2222L17.1111 0.777771Z" fill="#94439D"/>
<path d="M33 10.2222L28.4444 12.6667L25.286 14.5555L20.6667 17.3181L17.1111 19.4444V24.7778L25.3333 20.0054L29.7456 17.4444L33 15.5555V10.2222Z" fill="#6F1676"/>
<path d="M33 19.4444L28.4444 22L17.1111 28.5555V33.8889L33 24.5555V19.4444Z" fill="#6F1676"/>
<path d="M17.1111 24.7778V19.4444L13.4444 17.4444L8.88889 20.1111L17.1111 24.7778Z" fill="#94439D"/>
<path d="M1 15.5555L4.11111 17.4444L8.88889 14.5555L5.73856 12.7778L1 15.5555Z" fill="#94439D"/>
<path d="M17.1111 33.8889V28.5555L5.66667 21.8889L1.11111 24.6667L17.1111 33.8889Z" fill="#94439D"/>
<path d="M25.286 14.5555L17.1111 9.88888V15.3333L20.6667 17.3181L25.286 14.5555Z" fill="#94439D"/>
<path d="M33 19.4444L29.7456 17.4444L25.3333 20.0054L28.4444 22L33 19.4444Z" fill="#94439D"/>
<path d="M8.88889 14.5555L4.11111 17.4444L1.11111 19.2222V24.6667L5.66667 21.8889L8.88889 20.1111L13.4444 17.4444L17.1111 15.3333V9.88888L8.88889 14.5555Z" fill="#6F1676"/>
<path d="M17.1111 0.777771V6.1111M17.1111 0.777771L33 10.2222M17.1111 0.777771L1 10.2222V15.5555M17.1111 6.1111L28.4444 12.6667M17.1111 6.1111L5.73856 12.7778M28.4444 12.6667L33 10.2222M28.4444 12.6667L25.286 14.5555M33 10.2222V15.5555L29.7456 17.4444M17.1111 24.7778V19.4444M17.1111 24.7778L8.88889 20.1111M17.1111 24.7778L25.3333 20.0054M17.1111 19.4444L13.4444 17.4444M17.1111 19.4444L20.6667 17.3181M1 15.5555L4.11111 17.4444M1 15.5555L5.73856 12.7778M4.11111 17.4444L8.88889 14.5555M4.11111 17.4444L1.11111 19.2222V24.6667M8.88889 14.5555L5.73856 12.7778M8.88889 14.5555L17.1111 9.88888M8.88889 20.1111L13.4444 17.4444M8.88889 20.1111L5.66667 21.8889M13.4444 17.4444L17.1111 15.3333M29.7456 17.4444L33 19.4444M29.7456 17.4444L25.3333 20.0054M33 19.4444L28.4444 22M33 19.4444V24.5555L17.1111 33.8889M28.4444 22L25.3333 20.0054M28.4444 22L17.1111 28.5555M17.1111 33.8889V28.5555M17.1111 33.8889L1.11111 24.6667M17.1111 28.5555L5.66667 21.8889M5.66667 21.8889L1.11111 24.6667M17.1111 9.88888L25.286 14.5555M17.1111 9.88888V15.3333M25.286 14.5555L20.6667 17.3181M17.1111 15.3333L20.6667 17.3181" stroke="#911A9B"/>
</svg>
